<svg width="22" height="24" viewBox="0 0 22 24" fill="none" xmlns="http://www.w3.org/2000/svg">
<path d="M16.2732 9.23327C16.2732 7.79465 15.7017 6.41494 14.6844 5.39768C13.6672 4.38042 12.2875 3.80893 10.8489 3.80893C9.41023 3.80893 8.03053 4.38042 7.01327 5.39768C5.996 6.41494 5.42451 7.79465 5.42451 9.23327C5.42451 15.5617 2.71234 17.3698 2.71234 17.3698H18.9854C18.9854 17.3698 16.2732 15.5617 16.2732 9.23327Z" stroke="black" stroke-width="2.16974" stroke-linecap="round" stroke-linejoin="round"/>
<path d="M12.4134 20.9857C12.2545 21.2597 12.0264 21.4871 11.7519 21.6452C11.4774 21.8033 11.1662 21.8865 10.8494 21.8865C10.5327 21.8865 10.2215 21.8033 9.94697 21.6452C9.67248 21.4871 9.44434 21.2597 9.2854 20.9857" stroke="black" stroke-width="2.16974" stroke-linecap="round" stroke-linejoin="round"/>
<circle cx="16" cy="5" r="5" fill="#FF0000"/>
</svg>
