<svg width="20" height="21" viewBox="0 0 20 21" fill="none" xmlns="http://www.w3.org/2000/svg">
<path d="M9.99998 13.3487C11.3807 13.3487 12.5 12.2294 12.5 10.8487C12.5 9.46799 11.3807 8.3487 9.99998 8.3487C8.61927 8.3487 7.49998 9.46799 7.49998 10.8487C7.49998 12.2294 8.61927 13.3487 9.99998 13.3487Z" stroke="black" stroke-width="2" stroke-linecap="round" stroke-linejoin="round"/>
<path d="M16.1666 13.3487C16.0557 13.6001 16.0226 13.8789 16.0716 14.1492C16.1207 14.4195 16.2495 14.669 16.4416 14.8654L16.4916 14.9154C16.6466 15.0702 16.7695 15.254 16.8534 15.4563C16.9373 15.6586 16.9805 15.8755 16.9805 16.0945C16.9805 16.3136 16.9373 16.5304 16.8534 16.7328C16.7695 16.9351 16.6466 17.1189 16.4916 17.2737C16.3369 17.4287 16.153 17.5516 15.9507 17.6355C15.7484 17.7193 15.5315 17.7625 15.3125 17.7625C15.0935 17.7625 14.8766 17.7193 14.6742 17.6355C14.4719 17.5516 14.2881 17.4287 14.1333 17.2737L14.0833 17.2237C13.8869 17.0316 13.6375 16.9027 13.3671 16.8537C13.0968 16.8047 12.818 16.8378 12.5666 16.9487C12.3202 17.0543 12.11 17.2297 11.9619 17.4533C11.8138 17.6769 11.7344 17.9389 11.7333 18.207V18.3487C11.7333 18.7907 11.5577 19.2147 11.2452 19.5272C10.9326 19.8398 10.5087 20.0154 10.0666 20.0154C9.62462 20.0154 9.2007 19.8398 8.88813 19.5272C8.57557 19.2147 8.39998 18.7907 8.39998 18.3487V18.2737C8.39353 17.9979 8.30424 17.7304 8.14374 17.506C7.98323 17.2815 7.75893 17.1106 7.49998 17.0154C7.24863 16.9044 6.96982 16.8713 6.69949 16.9204C6.42916 16.9694 6.17971 17.0983 5.98331 17.2904L5.93331 17.3404C5.77852 17.4953 5.59471 17.6183 5.39238 17.7021C5.19005 17.786 4.97317 17.8292 4.75415 17.8292C4.53512 17.8292 4.31824 17.786 4.11591 17.7021C3.91358 17.6183 3.72977 17.4953 3.57498 17.3404C3.42002 17.1856 3.29709 17.0018 3.21321 16.7994C3.12934 16.5971 3.08617 16.3802 3.08617 16.1612C3.08617 15.9422 3.12934 15.7253 3.21321 15.523C3.29709 15.3206 3.42002 15.1368 3.57498 14.982L3.62498 14.932C3.81709 14.7356 3.94597 14.4862 3.99498 14.2159C4.044 13.9455 4.01091 13.6667 3.89998 13.4154C3.79434 13.1689 3.61894 12.9587 3.39537 12.8106C3.17179 12.6626 2.9098 12.5831 2.64165 12.582H2.49998C2.05795 12.582 1.63403 12.4064 1.32147 12.0939C1.00891 11.7813 0.833313 11.3574 0.833313 10.9154C0.833313 10.4733 1.00891 10.0494 1.32147 9.73686C1.63403 9.4243 2.05795 9.2487 2.49998 9.2487H2.57498C2.85081 9.24225 3.11832 9.15297 3.34273 8.99246C3.56714 8.83196 3.73808 8.60765 3.83331 8.3487C3.94424 8.09736 3.97733 7.81854 3.92832 7.54821C3.8793 7.27788 3.75043 7.02844 3.55831 6.83204L3.50831 6.78204C3.35335 6.62725 3.23042 6.44343 3.14655 6.2411C3.06267 6.03877 3.0195 5.8219 3.0195 5.60287C3.0195 5.38384 3.06267 5.16697 3.14655 4.96464C3.23042 4.76231 3.35335 4.57849 3.50831 4.4237C3.6631 4.26874 3.84692 4.14581 4.04925 4.06194C4.25158 3.97806 4.46845 3.93489 4.68748 3.93489C4.90651 3.93489 5.12338 3.97806 5.32571 4.06194C5.52804 4.14581 5.71186 4.26874 5.86665 4.4237L5.91665 4.4737C6.11304 4.66582 6.36249 4.79469 6.63282 4.84371C6.90315 4.89272 7.18197 4.85963 7.43331 4.7487H7.49998C7.74645 4.64307 7.95666 4.46767 8.10472 4.24409C8.25279 4.02052 8.33224 3.75853 8.33331 3.49037V3.3487C8.33331 2.90668 8.50891 2.48275 8.82147 2.17019C9.13403 1.85763 9.55795 1.68204 9.99998 1.68204C10.442 1.68204 10.8659 1.85763 11.1785 2.17019C11.4911 2.48275 11.6666 2.90668 11.6666 3.3487V3.4237C11.6677 3.69186 11.7472 3.95385 11.8952 4.17743C12.0433 4.401 12.2535 4.5764 12.5 4.68204C12.7513 4.79297 13.0301 4.82606 13.3005 4.77704C13.5708 4.72802 13.8202 4.59915 14.0166 4.40704L14.0666 4.35704C14.2214 4.20208 14.4052 4.07914 14.6076 3.99527C14.8099 3.9114 15.0268 3.86823 15.2458 3.86823C15.4648 3.86823 15.6817 3.9114 15.884 3.99527C16.0864 4.07914 16.2702 4.20208 16.425 4.35704C16.5799 4.51183 16.7029 4.69564 16.7867 4.89797C16.8706 5.1003 16.9138 5.31718 16.9138 5.5362C16.9138 5.75523 16.8706 5.97211 16.7867 6.17444C16.7029 6.37677 16.5799 6.56058 16.425 6.71537L16.375 6.76537C16.1829 6.96177 16.054 7.21122 16.005 7.48155C15.956 7.75188 15.989 8.03069 16.1 8.28204V8.3487C16.2056 8.59518 16.381 8.80538 16.6046 8.95345C16.8282 9.10151 17.0902 9.18097 17.3583 9.18204H17.5C17.942 9.18204 18.3659 9.35763 18.6785 9.67019C18.9911 9.98275 19.1666 10.4067 19.1666 10.8487C19.1666 11.2907 18.9911 11.7147 18.6785 12.0272C18.3659 12.3398 17.942 12.5154 17.5 12.5154H17.425C17.1568 12.5164 16.8948 12.5959 16.6713 12.744C16.4477 12.892 16.2723 13.1022 16.1666 13.3487Z" stroke="black" stroke-width="2" stroke-linecap="round" stroke-linejoin="round"/>
</svg>
